<svg xmlns="http://www.w3.org/2000/svg" viewBox="0 0 10.8 10.8"><title>Ресурс 96</title><path d="M10.8,5.96V4.84l-1.85-.2a3.637,3.637,0,0,0-.5-1.2L9.62,1.98l-.4-.4-.4-.4L7.36,2.36a3.437,3.437,0,0,0-1.2-.5L5.96,0H4.84l-.2,1.86a3.389,3.389,0,0,0-1.19.5L1.98,1.18l-.8.8L2.35,3.44a3.617,3.617,0,0,0-.49,1.2L0,4.84V5.96l1.86.2a3.617,3.617,0,0,0,.49,1.2L1.18,8.82l.4.4.4.4L3.45,8.44a3.389,3.389,0,0,0,1.19.5l.2,1.86H5.96l.2-1.86a3.437,3.437,0,0,0,1.2-.5L8.82,9.62l.8-.8L8.45,7.36a3.637,3.637,0,0,0,.5-1.2ZM6.06,7.41a2.035,2.035,0,0,1-1.32,0,1.476,1.476,0,0,1-.29-.12,2.039,2.039,0,0,1-.94-.94,1.476,1.476,0,0,1-.12-.29,2.035,2.035,0,0,1,0-1.32,1.476,1.476,0,0,1,.12-.29,2.039,2.039,0,0,1,.94-.94,1.476,1.476,0,0,1,.29-.12,2.035,2.035,0,0,1,1.32,0,1.476,1.476,0,0,1,.29.12,2.06,2.06,0,0,1,.95.94.961.961,0,0,1,.11.28,1.93,1.93,0,0,1,0,1.34.961.961,0,0,1-.11.28,2.06,2.06,0,0,1-.95.94A1.476,1.476,0,0,1,6.06,7.41Z"/></svg>