<svg xmlns="http://www.w3.org/2000/svg" viewBox="0 0 8.36 10.81"><title>Ресурс 113</title><path d="M.68,2.91v6.8a1.1,1.1,0,0,0,1.1,1.1H6.57a1.091,1.091,0,0,0,1.1-1.1V2.91ZM2.24,9.92a.118.118,0,0,1-.11.11H1.57a.1.1,0,0,1-.11-.11V3.79a.111.111,0,0,1,.11-.11h.56a.127.127,0,0,1,.11.11Zm1.55,0a.118.118,0,0,1-.11.11H3.12a.111.111,0,0,1-.11-.11V3.79a.118.118,0,0,1,.11-.11h.56a.127.127,0,0,1,.11.11Zm1.55,0a.1.1,0,0,1-.11.11H4.67a.118.118,0,0,1-.11-.11V3.79a.127.127,0,0,1,.11-.11h.56a.111.111,0,0,1,.11.11Zm1.55,0a.1.1,0,0,1-.11.11H6.22a.11.11,0,0,1-.1-.11V3.79a.118.118,0,0,1,.1-.11h.56a.111.111,0,0,1,.11.11Z"/><path d="M8.25,1.53H6.39V.82A.817.817,0,0,0,5.57,0H2.78a.824.824,0,0,0-.82.82v.71H.1a.1.1,0,0,0-.1.11v.55a.1.1,0,0,0,.1.11H8.25a.111.111,0,0,0,.11-.11V1.64A.111.111,0,0,0,8.25,1.53Zm-2.63,0H2.73V.82A.046.046,0,0,1,2.78.78H5.57a.046.046,0,0,1,.05.04Z"/></svg>